<?xml version="1.0" encoding="UTF-8" standalone="no"?>
<!DOCTYPE svg PUBLIC "-//W3C//DTD SVG 1.1//EN"
 "http://www.w3.org/Graphics/SVG/1.1/DTD/svg11.dtd">
<!-- Generated by graphviz version 3.0.0 (20220226.1711)
 -->
<!-- Pages: 1 -->
<svg width="5455pt" height="278pt"
 viewBox="0.00 0.00 5455.00 278.41" xmlns="http://www.w3.org/2000/svg" xmlns:xlink="http://www.w3.org/1999/xlink">
<g id="graph0" class="graph" transform="scale(1 1) rotate(0) translate(4 274.41)">
<polygon fill="white" stroke="transparent" points="-4,4 -4,-274.41 5451,-274.41 5451,4 -4,4"/>
<g id="clust2" class="cluster">
<title>cluster_739_Ownable</title>
<polygon fill="none" stroke="black" points="3189,-8 3189,-155 3738,-155 3738,-8 3189,-8"/>
<text text-anchor="middle" x="3463.5" y="-139.8" font-family="Times,serif" font-size="14.00">Ownable</text>
</g>
<g id="clust3" class="cluster">
<title>cluster_1478_Context</title>
<polygon fill="none" stroke="black" points="5202,-163 5202,-238 5439,-238 5439,-163 5202,-163"/>
<text text-anchor="middle" x="5320.5" y="-222.8" font-family="Times,serif" font-size="14.00">Context</text>
</g>
<g id="clust4" class="cluster">
<title>cluster_634_TokenFarm</title>
<polygon fill="none" stroke="black" points="3746,-8 3746,-238 5194,-238 5194,-8 3746,-8"/>
<text text-anchor="middle" x="4470" y="-222.8" font-family="Times,serif" font-size="14.00">TokenFarm</text>
</g>
<g id="clust5" class="cluster">
<title>cluster_solidity</title>
<polygon fill="none" stroke="black" points="2490,-8 2490,-238 3149,-238 3149,-8 2490,-8"/>
<text text-anchor="middle" x="2819.5" y="-222.8" font-family="Times,serif" font-size="14.00">[Solidity]</text>
</g>
<g id="clust1" class="cluster">
<title>cluster_1410_ChainlinkClient</title>
<polygon fill="none" stroke="black" points="8,-80 8,-238 2482,-238 2482,-80 8,-80"/>
<text text-anchor="middle" x="1245" y="-222.8" font-family="Times,serif" font-size="14.00">ChainlinkClient</text>
</g>
<!-- 1410_chainlinkOracleAddress -->
<g id="node1" class="node">
<title>1410_chainlinkOracleAddress</title>
<ellipse fill="none" stroke="black" cx="2378" cy="-189" rx="95.58" ry="18"/>
<text text-anchor="middle" x="2378" y="-185.3" font-family="Times,serif" font-size="14.00">chainlinkOracleAddress</text>
</g>
<!-- 1410_sendChainlinkRequest -->
<g id="node2" class="node">
<title>1410_sendChainlinkRequest</title>
<ellipse fill="none" stroke="black" cx="2175" cy="-189" rx="89.88" ry="18"/>
<text text-anchor="middle" x="2175" y="-185.3" font-family="Times,serif" font-size="14.00">sendChainlinkRequest</text>
</g>
<!-- 1410_sendChainlinkRequestTo -->
<g id="node7" class="node">
<title>1410_sendChainlinkRequestTo</title>
<ellipse fill="none" stroke="black" cx="3041" cy="-189" rx="98.58" ry="18"/>
<text text-anchor="middle" x="3041" y="-185.3" font-family="Times,serif" font-size="14.00">sendChainlinkRequestTo</text>
</g>
<!-- 1410_sendChainlinkRequest&#45;&gt;1410_sendChainlinkRequestTo -->
<g id="edge8" class="edge">
<title>1410_sendChainlinkRequest&#45;&gt;1410_sendChainlinkRequestTo</title>
<path fill="none" stroke="black" d="M2195.4,-206.74C2215.76,-223.16 2248.72,-246.44 2282,-256 2350.67,-275.72 2855.99,-274.5 2925,-256 2956.33,-247.6 2987.96,-228.46 3010.26,-212.78"/>
<polygon fill="black" stroke="black" points="3012.56,-215.44 3018.62,-206.76 3008.46,-209.76 3012.56,-215.44"/>
</g>
<!-- 1410_buildChainlinkRequest -->
<g id="node3" class="node">
<title>1410_buildChainlinkRequest</title>
<ellipse fill="none" stroke="black" cx="1976" cy="-189" rx="91.78" ry="18"/>
<text text-anchor="middle" x="1976" y="-185.3" font-family="Times,serif" font-size="14.00">buildChainlinkRequest</text>
</g>
<!-- 1410__rawRequest -->
<g id="node4" class="node">
<title>1410__rawRequest</title>
<ellipse fill="none" stroke="black" cx="3084" cy="-106" rx="56.59" ry="18"/>
<text text-anchor="middle" x="3084" y="-102.3" font-family="Times,serif" font-size="14.00">_rawRequest</text>
</g>
<!-- require(bool,string) -->
<g id="node49" class="node">
<title>require(bool,string)</title>
<ellipse fill="none" stroke="black" cx="3062" cy="-34" rx="79.09" ry="18"/>
<text text-anchor="middle" x="3062" y="-30.3" font-family="Times,serif" font-size="14.00">require(bool,string)</text>
</g>
<!-- 1410__rawRequest&#45;&gt;require(bool,string) -->
<g id="edge40" class="edge">
<title>1410__rawRequest&#45;&gt;require(bool,string)</title>
<path fill="none" stroke="black" d="M3078.67,-88.05C3076.22,-80.26 3073.26,-70.82 3070.51,-62.08"/>
<polygon fill="black" stroke="black" points="3073.77,-60.77 3067.43,-52.28 3067.09,-62.86 3073.77,-60.77"/>
</g>
<!-- keccak256(bytes) -->
<g id="node50" class="node">
<title>keccak256(bytes)</title>
<ellipse fill="none" stroke="black" cx="2892" cy="-34" rx="72.59" ry="18"/>
<text text-anchor="middle" x="2892" y="-30.3" font-family="Times,serif" font-size="14.00">keccak256(bytes)</text>
</g>
<!-- 1410__rawRequest&#45;&gt;keccak256(bytes) -->
<g id="edge41" class="edge">
<title>1410__rawRequest&#45;&gt;keccak256(bytes)</title>
<path fill="none" stroke="black" d="M3049.66,-91.59C3039.78,-87.79 3028.98,-83.69 3019,-80 2993.75,-70.67 2965.54,-60.64 2942.14,-52.42"/>
<polygon fill="black" stroke="black" points="2943.02,-49.02 2932.42,-49.01 2940.7,-55.63 2943.02,-49.02"/>
</g>
<!-- abi.encodePacked() -->
<g id="node51" class="node">
<title>abi.encodePacked()</title>
<ellipse fill="none" stroke="black" cx="2721" cy="-34" rx="79.89" ry="18"/>
<text text-anchor="middle" x="2721" y="-30.3" font-family="Times,serif" font-size="14.00">abi.encodePacked()</text>
</g>
<!-- 1410__rawRequest&#45;&gt;abi.encodePacked() -->
<g id="edge38" class="edge">
<title>1410__rawRequest&#45;&gt;abi.encodePacked()</title>
<path fill="none" stroke="black" d="M3052.08,-91.02C3041.7,-86.93 3030.01,-82.81 3019,-80 2928.2,-56.8 2902.51,-67.02 2810,-52 2803.22,-50.9 2796.16,-49.68 2789.12,-48.41"/>
<polygon fill="black" stroke="black" points="2789.31,-44.89 2778.85,-46.53 2788.05,-51.78 2789.31,-44.89"/>
</g>
<!-- 1410_getNextRequestCount -->
<g id="node5" class="node">
<title>1410_getNextRequestCount</title>
<ellipse fill="none" stroke="black" cx="1778" cy="-189" rx="88.28" ry="18"/>
<text text-anchor="middle" x="1778" y="-185.3" font-family="Times,serif" font-size="14.00">getNextRequestCount</text>
</g>
<!-- 1410_updateChainlinkOracleWithENS -->
<g id="node6" class="node">
<title>1410_updateChainlinkOracleWithENS</title>
<ellipse fill="none" stroke="black" cx="2624" cy="-106" rx="126.18" ry="18"/>
<text text-anchor="middle" x="2624" y="-102.3" font-family="Times,serif" font-size="14.00">updateChainlinkOracleWithENS</text>
</g>
<!-- 1410_setChainlinkOracle -->
<g id="node16" class="node">
<title>1410_setChainlinkOracle</title>
<ellipse fill="none" stroke="black" cx="789" cy="-189" rx="78.79" ry="18"/>
<text text-anchor="middle" x="789" y="-185.3" font-family="Times,serif" font-size="14.00">setChainlinkOracle</text>
</g>
<!-- 1410_updateChainlinkOracleWithENS&#45;&gt;1410_setChainlinkOracle -->
<g id="edge9" class="edge">
<title>1410_updateChainlinkOracleWithENS&#45;&gt;1410_setChainlinkOracle</title>
<path fill="none" stroke="black" d="M2587.68,-123.34C2560.35,-134.71 2521.63,-148.89 2486,-155 2397.9,-170.11 965.5,-150.45 877,-163 864.96,-164.71 852.25,-167.63 840.35,-170.89"/>
<polygon fill="black" stroke="black" points="839.23,-167.57 830.58,-173.68 841.15,-174.3 839.23,-167.57"/>
</g>
<!-- 1410_updateChainlinkOracleWithENS&#45;&gt;keccak256(bytes) -->
<g id="edge37" class="edge">
<title>1410_updateChainlinkOracleWithENS&#45;&gt;keccak256(bytes)</title>
<path fill="none" stroke="black" d="M2681.82,-89.9C2726.74,-78.16 2788.76,-61.96 2833.78,-50.21"/>
<polygon fill="black" stroke="black" points="2834.9,-53.53 2843.69,-47.62 2833.13,-46.76 2834.9,-53.53"/>
</g>
<!-- 1410_updateChainlinkOracleWithENS&#45;&gt;abi.encodePacked() -->
<g id="edge29" class="edge">
<title>1410_updateChainlinkOracleWithENS&#45;&gt;abi.encodePacked()</title>
<path fill="none" stroke="black" d="M2647.48,-88.05C2660.3,-78.81 2676.32,-67.24 2690.14,-57.27"/>
<polygon fill="black" stroke="black" points="2692.34,-60 2698.4,-51.31 2688.25,-54.32 2692.34,-60"/>
</g>
<!-- 1410_sendChainlinkRequestTo&#45;&gt;1410__rawRequest -->
<g id="edge10" class="edge">
<title>1410_sendChainlinkRequestTo&#45;&gt;1410__rawRequest</title>
<path fill="none" stroke="black" d="M3050.12,-170.82C3055.97,-159.79 3063.69,-145.27 3070.27,-132.86"/>
<polygon fill="black" stroke="black" points="3073.44,-134.35 3075.04,-123.88 3067.26,-131.07 3073.44,-134.35"/>
</g>
<!-- abi.encodeWithSelector() -->
<g id="node48" class="node">
<title>abi.encodeWithSelector()</title>
<ellipse fill="none" stroke="black" cx="2909" cy="-106" rx="100.98" ry="18"/>
<text text-anchor="middle" x="2909" y="-102.3" font-family="Times,serif" font-size="14.00">abi.encodeWithSelector()</text>
</g>
<!-- 1410_sendChainlinkRequestTo&#45;&gt;abi.encodeWithSelector() -->
<g id="edge39" class="edge">
<title>1410_sendChainlinkRequestTo&#45;&gt;abi.encodeWithSelector()</title>
<path fill="none" stroke="black" d="M3014.29,-171.61C2994.16,-159.26 2966.37,-142.2 2944.39,-128.72"/>
<polygon fill="black" stroke="black" points="2946.03,-125.61 2935.67,-123.37 2942.37,-131.58 2946.03,-125.61"/>
</g>
<!-- 1410_cancelChainlinkRequest -->
<g id="node8" class="node">
<title>1410_cancelChainlinkRequest</title>
<ellipse fill="none" stroke="black" cx="1575" cy="-189" rx="96.38" ry="18"/>
<text text-anchor="middle" x="1575" y="-185.3" font-family="Times,serif" font-size="14.00">cancelChainlinkRequest</text>
</g>
<!-- 1410_buildOperatorRequest -->
<g id="node9" class="node">
<title>1410_buildOperatorRequest</title>
<ellipse fill="none" stroke="black" cx="1372" cy="-189" rx="88.28" ry="18"/>
<text text-anchor="middle" x="1372" y="-185.3" font-family="Times,serif" font-size="14.00">buildOperatorRequest</text>
</g>
<!-- 1410_setChainlinkToken -->
<g id="node10" class="node">
<title>1410_setChainlinkToken</title>
<ellipse fill="none" stroke="black" cx="1501" cy="-106" rx="77.19" ry="18"/>
<text text-anchor="middle" x="1501" y="-102.3" font-family="Times,serif" font-size="14.00">setChainlinkToken</text>
</g>
<!-- 1410_useChainlinkWithENS -->
<g id="node11" class="node">
<title>1410_useChainlinkWithENS</title>
<ellipse fill="none" stroke="black" cx="2624" cy="-189" rx="90.98" ry="18"/>
<text text-anchor="middle" x="2624" y="-185.3" font-family="Times,serif" font-size="14.00">useChainlinkWithENS</text>
</g>
<!-- 1410_useChainlinkWithENS&#45;&gt;1410_updateChainlinkOracleWithENS -->
<g id="edge6" class="edge">
<title>1410_useChainlinkWithENS&#45;&gt;1410_updateChainlinkOracleWithENS</title>
<path fill="none" stroke="black" d="M2624,-170.82C2624,-160.19 2624,-146.31 2624,-134.2"/>
<polygon fill="black" stroke="black" points="2627.5,-134.15 2624,-124.15 2620.5,-134.15 2627.5,-134.15"/>
</g>
<!-- 1410_useChainlinkWithENS&#45;&gt;1410_setChainlinkToken -->
<g id="edge3" class="edge">
<title>1410_useChainlinkWithENS&#45;&gt;1410_setChainlinkToken</title>
<path fill="none" stroke="black" d="M2563.78,-175.44C2539.69,-170.85 2511.63,-166.04 2486,-163 2155.8,-123.85 1759.96,-111.87 1587.92,-108.37"/>
<polygon fill="black" stroke="black" points="1587.98,-104.87 1577.91,-108.17 1587.84,-111.87 1587.98,-104.87"/>
</g>
<!-- 1410_useChainlinkWithENS&#45;&gt;keccak256(bytes) -->
<g id="edge32" class="edge">
<title>1410_useChainlinkWithENS&#45;&gt;keccak256(bytes)</title>
<path fill="none" stroke="black" d="M2676.25,-174.17C2691.58,-170.32 2708.42,-166.3 2724,-163 2744.3,-158.7 2753.96,-168.16 2770,-155 2797.63,-132.33 2774.78,-106.28 2799,-80 2809.77,-68.31 2824.22,-59.33 2838.52,-52.57"/>
<polygon fill="black" stroke="black" points="2840.12,-55.69 2847.85,-48.45 2837.29,-49.29 2840.12,-55.69"/>
</g>
<!-- 1410_useChainlinkWithENS&#45;&gt;abi.encodePacked() -->
<g id="edge36" class="edge">
<title>1410_useChainlinkWithENS&#45;&gt;abi.encodePacked()</title>
<path fill="none" stroke="black" d="M2677.67,-174.37C2692.65,-170.62 2708.95,-166.6 2724,-163 2739.52,-159.29 2749.05,-167.48 2759,-155 2779.78,-128.94 2770.45,-111.31 2759,-80 2756.34,-72.74 2751.94,-65.84 2747.05,-59.72"/>
<polygon fill="black" stroke="black" points="2749.43,-57.13 2740.21,-51.91 2744.17,-61.74 2749.43,-57.13"/>
</g>
<!-- 1410_chainlinkTokenAddress -->
<g id="node12" class="node">
<title>1410_chainlinkTokenAddress</title>
<ellipse fill="none" stroke="black" cx="1171" cy="-189" rx="94.48" ry="18"/>
<text text-anchor="middle" x="1171" y="-185.3" font-family="Times,serif" font-size="14.00">chainlinkTokenAddress</text>
</g>
<!-- 1410_setPublicChainlinkToken -->
<g id="node13" class="node">
<title>1410_setPublicChainlinkToken</title>
<ellipse fill="none" stroke="black" cx="593" cy="-189" rx="99.38" ry="18"/>
<text text-anchor="middle" x="593" y="-185.3" font-family="Times,serif" font-size="14.00">setPublicChainlinkToken</text>
</g>
<!-- 1410_setPublicChainlinkToken&#45;&gt;1410_setChainlinkToken -->
<g id="edge2" class="edge">
<title>1410_setPublicChainlinkToken&#45;&gt;1410_setChainlinkToken</title>
<path fill="none" stroke="black" d="M646.79,-173.79C664,-169.72 683.2,-165.67 701,-163 958.33,-124.46 1266.3,-112.34 1413.83,-108.61"/>
<polygon fill="black" stroke="black" points="1414.26,-112.1 1424.17,-108.36 1414.09,-105.11 1414.26,-112.1"/>
</g>
<!-- 1410_validateChainlinkCallback -->
<g id="node14" class="node">
<title>1410_validateChainlinkCallback</title>
<ellipse fill="none" stroke="black" cx="371" cy="-189" rx="104.78" ry="18"/>
<text text-anchor="middle" x="371" y="-185.3" font-family="Times,serif" font-size="14.00">validateChainlinkCallback</text>
</g>
<!-- 1410_recordChainlinkFulfillment -->
<g id="node20" class="node">
<title>1410_recordChainlinkFulfillment</title>
<ellipse fill="none" stroke="black" cx="376" cy="-106" rx="129.98" ry="18"/>
<text text-anchor="middle" x="376" y="-102.3" font-family="Times,serif" font-size="14.00">1410_recordChainlinkFulfillment</text>
</g>
<!-- 1410_validateChainlinkCallback&#45;&gt;1410_recordChainlinkFulfillment -->
<g id="edge7" class="edge">
<title>1410_validateChainlinkCallback&#45;&gt;1410_recordChainlinkFulfillment</title>
<path fill="none" stroke="black" d="M372.06,-170.82C372.72,-160.19 373.57,-146.31 374.32,-134.2"/>
<polygon fill="black" stroke="black" points="377.82,-134.35 374.94,-124.15 370.83,-133.92 377.82,-134.35"/>
</g>
<!-- 1410_addChainlinkExternalRequest -->
<g id="node15" class="node">
<title>1410_addChainlinkExternalRequest</title>
<ellipse fill="none" stroke="black" cx="132" cy="-189" rx="116.18" ry="18"/>
<text text-anchor="middle" x="132" y="-185.3" font-family="Times,serif" font-size="14.00">addChainlinkExternalRequest</text>
</g>
<!-- 1410_notPendingRequest -->
<g id="node19" class="node">
<title>1410_notPendingRequest</title>
<ellipse fill="none" stroke="black" cx="127" cy="-106" rx="100.98" ry="18"/>
<text text-anchor="middle" x="127" y="-102.3" font-family="Times,serif" font-size="14.00">1410_notPendingRequest</text>
</g>
<!-- 1410_addChainlinkExternalRequest&#45;&gt;1410_notPendingRequest -->
<g id="edge5" class="edge">
<title>1410_addChainlinkExternalRequest&#45;&gt;1410_notPendingRequest</title>
<path fill="none" stroke="black" d="M130.94,-170.82C130.28,-160.19 129.43,-146.31 128.68,-134.2"/>
<polygon fill="black" stroke="black" points="132.17,-133.92 128.06,-124.15 125.18,-134.35 132.17,-133.92"/>
</g>
<!-- 1410_sendOperatorRequest -->
<g id="node17" class="node">
<title>1410_sendOperatorRequest</title>
<ellipse fill="none" stroke="black" cx="972" cy="-189" rx="86.38" ry="18"/>
<text text-anchor="middle" x="972" y="-185.3" font-family="Times,serif" font-size="14.00">sendOperatorRequest</text>
</g>
<!-- 1410_sendOperatorRequestTo -->
<g id="node18" class="node">
<title>1410_sendOperatorRequestTo</title>
<ellipse fill="none" stroke="black" cx="2829" cy="-189" rx="95.58" ry="18"/>
<text text-anchor="middle" x="2829" y="-185.3" font-family="Times,serif" font-size="14.00">sendOperatorRequestTo</text>
</g>
<!-- 1410_sendOperatorRequest&#45;&gt;1410_sendOperatorRequestTo -->
<g id="edge4" class="edge">
<title>1410_sendOperatorRequest&#45;&gt;1410_sendOperatorRequestTo</title>
<path fill="none" stroke="black" d="M991.96,-206.73C1011.89,-223.15 1044.2,-246.43 1077,-256 1120.68,-268.75 2671.1,-267.95 2715,-256 2745.9,-247.59 2776.97,-228.46 2798.85,-212.78"/>
<polygon fill="black" stroke="black" points="2801.07,-215.49 2807.06,-206.75 2796.93,-209.85 2801.07,-215.49"/>
</g>
<!-- 1410_sendOperatorRequestTo&#45;&gt;1410__rawRequest -->
<g id="edge1" class="edge">
<title>1410_sendOperatorRequestTo&#45;&gt;1410__rawRequest</title>
<path fill="none" stroke="black" d="M2881.34,-173.87C2897.78,-169.85 2916.05,-165.81 2933,-163 2970.87,-156.72 2983.13,-168.68 3019,-155 3033.77,-149.37 3048.12,-139.4 3059.57,-130"/>
<polygon fill="black" stroke="black" points="3062.04,-132.49 3067.36,-123.32 3057.49,-127.17 3062.04,-132.49"/>
</g>
<!-- 1410_sendOperatorRequestTo&#45;&gt;abi.encodeWithSelector() -->
<g id="edge34" class="edge">
<title>1410_sendOperatorRequestTo&#45;&gt;abi.encodeWithSelector()</title>
<path fill="none" stroke="black" d="M2845.58,-171.22C2857.05,-159.6 2872.5,-143.95 2885.28,-131.02"/>
<polygon fill="black" stroke="black" points="2887.91,-133.34 2892.45,-123.76 2882.93,-128.42 2887.91,-133.34"/>
</g>
<!-- 739_constructor -->
<g id="node21" class="node">
<title>739_constructor</title>
<ellipse fill="none" stroke="black" cx="3680" cy="-106" rx="50.09" ry="18"/>
<text text-anchor="middle" x="3680" y="-102.3" font-family="Times,serif" font-size="14.00">constructor</text>
</g>
<!-- 739__transferOwnership -->
<g id="node24" class="node">
<title>739__transferOwnership</title>
<ellipse fill="none" stroke="black" cx="3487" cy="-34" rx="80.69" ry="18"/>
<text text-anchor="middle" x="3487" y="-30.3" font-family="Times,serif" font-size="14.00">_transferOwnership</text>
</g>
<!-- 739_constructor&#45;&gt;739__transferOwnership -->
<g id="edge15" class="edge">
<title>739_constructor&#45;&gt;739__transferOwnership</title>
<path fill="none" stroke="black" d="M3649.56,-91.57C3640.43,-87.69 3630.36,-83.55 3621,-80 3595.08,-70.17 3565.95,-60.26 3541.49,-52.25"/>
<polygon fill="black" stroke="black" points="3542.26,-48.82 3531.66,-49.05 3540.09,-55.47 3542.26,-48.82"/>
</g>
<!-- 739__msgSender -->
<g id="node26" class="node">
<title>739__msgSender</title>
<ellipse fill="none" stroke="black" cx="3658" cy="-34" rx="72.29" ry="18"/>
<text text-anchor="middle" x="3658" y="-30.3" font-family="Times,serif" font-size="14.00">739__msgSender</text>
</g>
<!-- 739_constructor&#45;&gt;739__msgSender -->
<g id="edge11" class="edge">
<title>739_constructor&#45;&gt;739__msgSender</title>
<path fill="none" stroke="black" d="M3674.67,-88.05C3672.22,-80.26 3669.26,-70.82 3666.51,-62.08"/>
<polygon fill="black" stroke="black" points="3669.77,-60.77 3663.43,-52.28 3663.09,-62.86 3669.77,-60.77"/>
</g>
<!-- 739_renounceOwnership -->
<g id="node22" class="node">
<title>739_renounceOwnership</title>
<ellipse fill="none" stroke="black" cx="3531" cy="-106" rx="81.49" ry="18"/>
<text text-anchor="middle" x="3531" y="-102.3" font-family="Times,serif" font-size="14.00">renounceOwnership</text>
</g>
<!-- 739_renounceOwnership&#45;&gt;739__transferOwnership -->
<g id="edge16" class="edge">
<title>739_renounceOwnership&#45;&gt;739__transferOwnership</title>
<path fill="none" stroke="black" d="M3520.35,-88.05C3515.24,-79.92 3509,-70 3503.31,-60.94"/>
<polygon fill="black" stroke="black" points="3506.14,-58.88 3497.86,-52.28 3500.22,-62.6 3506.14,-58.88"/>
</g>
<!-- 739_onlyOwner -->
<g id="node27" class="node">
<title>739_onlyOwner</title>
<ellipse fill="none" stroke="black" cx="3321" cy="-34" rx="67.69" ry="18"/>
<text text-anchor="middle" x="3321" y="-30.3" font-family="Times,serif" font-size="14.00">739_onlyOwner</text>
</g>
<!-- 739_renounceOwnership&#45;&gt;739_onlyOwner -->
<g id="edge12" class="edge">
<title>739_renounceOwnership&#45;&gt;739_onlyOwner</title>
<path fill="none" stroke="black" d="M3488,-90.67C3454.1,-79.37 3406.79,-63.6 3371.17,-51.72"/>
<polygon fill="black" stroke="black" points="3372.05,-48.33 3361.45,-48.48 3369.83,-54.97 3372.05,-48.33"/>
</g>
<!-- 739_transferOwnership -->
<g id="node23" class="node">
<title>739_transferOwnership</title>
<ellipse fill="none" stroke="black" cx="3356" cy="-106" rx="76.09" ry="18"/>
<text text-anchor="middle" x="3356" y="-102.3" font-family="Times,serif" font-size="14.00">transferOwnership</text>
</g>
<!-- 739_transferOwnership&#45;&gt;739__transferOwnership -->
<g id="edge13" class="edge">
<title>739_transferOwnership&#45;&gt;739__transferOwnership</title>
<path fill="none" stroke="black" d="M3385.4,-89.29C3403.98,-79.36 3428.19,-66.42 3448.32,-55.67"/>
<polygon fill="black" stroke="black" points="3450.08,-58.7 3457.25,-50.9 3446.78,-52.53 3450.08,-58.7"/>
</g>
<!-- 739_transferOwnership&#45;&gt;739_onlyOwner -->
<g id="edge14" class="edge">
<title>739_transferOwnership&#45;&gt;739_onlyOwner</title>
<path fill="none" stroke="black" d="M3347.53,-88.05C3343.5,-80.01 3338.6,-70.2 3334.11,-61.23"/>
<polygon fill="black" stroke="black" points="3337.24,-59.65 3329.64,-52.28 3330.98,-62.78 3337.24,-59.65"/>
</g>
<!-- 739_transferOwnership&#45;&gt;require(bool,string) -->
<g id="edge33" class="edge">
<title>739_transferOwnership&#45;&gt;require(bool,string)</title>
<path fill="none" stroke="black" d="M3311.08,-91.3C3297.9,-87.45 3283.41,-83.4 3270,-80 3223.51,-68.23 3170.69,-56.83 3129.91,-48.44"/>
<polygon fill="black" stroke="black" points="3130.58,-45.01 3120.08,-46.43 3129.18,-51.87 3130.58,-45.01"/>
</g>
<!-- 739_owner -->
<g id="node25" class="node">
<title>739_owner</title>
<ellipse fill="none" stroke="black" cx="3229" cy="-106" rx="32.49" ry="18"/>
<text text-anchor="middle" x="3229" y="-102.3" font-family="Times,serif" font-size="14.00">owner</text>
</g>
<!-- 1478__msgData -->
<g id="node28" class="node">
<title>1478__msgData</title>
<ellipse fill="none" stroke="black" cx="5384" cy="-189" rx="46.59" ry="18"/>
<text text-anchor="middle" x="5384" y="-185.3" font-family="Times,serif" font-size="14.00">_msgData</text>
</g>
<!-- 1478__msgSender -->
<g id="node29" class="node">
<title>1478__msgSender</title>
<ellipse fill="none" stroke="black" cx="5265" cy="-189" rx="54.69" ry="18"/>
<text text-anchor="middle" x="5265" y="-185.3" font-family="Times,serif" font-size="14.00">_msgSender</text>
</g>
<!-- 634_calculateStakeReward -->
<g id="node30" class="node">
<title>634_calculateStakeReward</title>
<ellipse fill="none" stroke="black" cx="4377" cy="-34" rx="89.08" ry="18"/>
<text text-anchor="middle" x="4377" y="-30.3" font-family="Times,serif" font-size="14.00">calculateStakeReward</text>
</g>
<!-- 634_getStaker -->
<g id="node31" class="node">
<title>634_getStaker</title>
<ellipse fill="none" stroke="black" cx="5142" cy="-189" rx="44.39" ry="18"/>
<text text-anchor="middle" x="5142" y="-185.3" font-family="Times,serif" font-size="14.00">getStaker</text>
</g>
<!-- 634_getTokenEthPrice -->
<g id="node32" class="node">
<title>634_getTokenEthPrice</title>
<ellipse fill="none" stroke="black" cx="4785" cy="-34" rx="73.39" ry="18"/>
<text text-anchor="middle" x="4785" y="-30.3" font-family="Times,serif" font-size="14.00">getTokenEthPrice</text>
</g>
<!-- 634__addStakeholder -->
<g id="node33" class="node">
<title>634__addStakeholder</title>
<ellipse fill="none" stroke="black" cx="4608" cy="-34" rx="69.59" ry="18"/>
<text text-anchor="middle" x="4608" y="-30.3" font-family="Times,serif" font-size="14.00">_addStakeholder</text>
</g>
<!-- 634__stake -->
<g id="node34" class="node">
<title>634__stake</title>
<ellipse fill="none" stroke="black" cx="4608" cy="-106" rx="33.29" ry="18"/>
<text text-anchor="middle" x="4608" y="-102.3" font-family="Times,serif" font-size="14.00">_stake</text>
</g>
<!-- 634__stake&#45;&gt;634__addStakeholder -->
<g id="edge27" class="edge">
<title>634__stake&#45;&gt;634__addStakeholder</title>
<path fill="none" stroke="black" d="M4608,-87.7C4608,-79.98 4608,-70.71 4608,-62.11"/>
<polygon fill="black" stroke="black" points="4611.5,-62.1 4608,-52.1 4604.5,-62.1 4611.5,-62.1"/>
</g>
<!-- 634__stake&#45;&gt;require(bool,string) -->
<g id="edge42" class="edge">
<title>634__stake&#45;&gt;require(bool,string)</title>
<path fill="none" stroke="black" d="M4589.31,-91.06C4582.35,-86.66 4574.16,-82.33 4566,-80 4418.44,-37.79 3338,-64.08 3185,-52 3168.72,-50.71 3151.3,-48.7 3134.84,-46.5"/>
<polygon fill="black" stroke="black" points="3135.12,-43.01 3124.73,-45.11 3134.17,-49.94 3135.12,-43.01"/>
</g>
<!-- 634_stake -->
<g id="node35" class="node">
<title>634_stake</title>
<ellipse fill="none" stroke="black" cx="5051" cy="-189" rx="28.7" ry="18"/>
<text text-anchor="middle" x="5051" y="-185.3" font-family="Times,serif" font-size="14.00">stake</text>
</g>
<!-- 634_stake&#45;&gt;634__stake -->
<g id="edge22" class="edge">
<title>634_stake&#45;&gt;634__stake</title>
<path fill="none" stroke="black" d="M5034.76,-174.08C5028.65,-169.68 5021.39,-165.35 5014,-163 4975.45,-150.73 4686.65,-172.12 4650,-155 4639.36,-150.03 4630.32,-140.93 4623.39,-131.99"/>
<polygon fill="black" stroke="black" points="4626.06,-129.7 4617.4,-123.59 4620.36,-133.77 4626.06,-129.7"/>
</g>
<!-- 634_tokenIsAllowed -->
<g id="node46" class="node">
<title>634_tokenIsAllowed</title>
<ellipse fill="none" stroke="black" cx="5051" cy="-106" rx="84.49" ry="18"/>
<text text-anchor="middle" x="5051" y="-102.3" font-family="Times,serif" font-size="14.00">634_tokenIsAllowed</text>
</g>
<!-- 634_stake&#45;&gt;634_tokenIsAllowed -->
<g id="edge17" class="edge">
<title>634_stake&#45;&gt;634_tokenIsAllowed</title>
<path fill="none" stroke="black" d="M5051,-170.82C5051,-160.19 5051,-146.31 5051,-134.2"/>
<polygon fill="black" stroke="black" points="5054.5,-134.15 5051,-124.15 5047.5,-134.15 5054.5,-134.15"/>
</g>
<!-- 634__unstake -->
<g id="node36" class="node">
<title>634__unstake</title>
<ellipse fill="none" stroke="black" cx="4324" cy="-106" rx="42.49" ry="18"/>
<text text-anchor="middle" x="4324" y="-102.3" font-family="Times,serif" font-size="14.00">_unstake</text>
</g>
<!-- 634__unstake&#45;&gt;634_calculateStakeReward -->
<g id="edge23" class="edge">
<title>634__unstake&#45;&gt;634_calculateStakeReward</title>
<path fill="none" stroke="black" d="M4336.29,-88.76C4342.73,-80.27 4350.74,-69.68 4357.96,-60.15"/>
<polygon fill="black" stroke="black" points="4360.79,-62.21 4364.03,-52.12 4355.21,-57.98 4360.79,-62.21"/>
</g>
<!-- 634__unstake&#45;&gt;require(bool,string) -->
<g id="edge30" class="edge">
<title>634__unstake&#45;&gt;require(bool,string)</title>
<path fill="none" stroke="black" d="M4300.68,-90.95C4292.26,-86.59 4282.48,-82.33 4273,-80 4155.56,-51.17 3305.53,-61.85 3185,-52 3168.72,-50.67 3151.3,-48.64 3134.84,-46.44"/>
<polygon fill="black" stroke="black" points="3135.12,-42.94 3124.74,-45.05 3134.17,-49.88 3135.12,-42.94"/>
</g>
<!-- 634_addToAllowedTokens -->
<g id="node37" class="node">
<title>634_addToAllowedTokens</title>
<ellipse fill="none" stroke="black" cx="4727" cy="-189" rx="88.28" ry="18"/>
<text text-anchor="middle" x="4727" y="-185.3" font-family="Times,serif" font-size="14.00">addToAllowedTokens</text>
</g>
<!-- 634_onlyOwner -->
<g id="node47" class="node">
<title>634_onlyOwner</title>
<ellipse fill="none" stroke="black" cx="4489" cy="-106" rx="67.69" ry="18"/>
<text text-anchor="middle" x="4489" y="-102.3" font-family="Times,serif" font-size="14.00">634_onlyOwner</text>
</g>
<!-- 634_addToAllowedTokens&#45;&gt;634_onlyOwner -->
<g id="edge19" class="edge">
<title>634_addToAllowedTokens&#45;&gt;634_onlyOwner</title>
<path fill="none" stroke="black" d="M4677.43,-173.92C4662.3,-169.98 4645.55,-165.96 4630,-163 4601.84,-157.63 4593.02,-164.58 4566,-155 4549.07,-148.99 4531.95,-138.82 4518.16,-129.37"/>
<polygon fill="black" stroke="black" points="4519.8,-126.25 4509.62,-123.33 4515.76,-131.96 4519.8,-126.25"/>
</g>
<!-- 634_getUserStakingEthAmountValue -->
<g id="node38" class="node">
<title>634_getUserStakingEthAmountValue</title>
<ellipse fill="none" stroke="black" cx="4785" cy="-106" rx="126.18" ry="18"/>
<text text-anchor="middle" x="4785" y="-102.3" font-family="Times,serif" font-size="14.00">getUserStakingEthAmountValue</text>
</g>
<!-- 634_getUserStakingEthAmountValue&#45;&gt;634_calculateStakeReward -->
<g id="edge21" class="edge">
<title>634_getUserStakingEthAmountValue&#45;&gt;634_calculateStakeReward</title>
<path fill="none" stroke="black" d="M4712.18,-91.24C4692.05,-87.51 4670.19,-83.53 4650,-80 4584.19,-68.48 4509.3,-56.2 4454.62,-47.38"/>
<polygon fill="black" stroke="black" points="4455.09,-43.91 4444.66,-45.77 4453.97,-50.82 4455.09,-43.91"/>
</g>
<!-- 634_getUserStakingEthAmountValue&#45;&gt;634_getTokenEthPrice -->
<g id="edge28" class="edge">
<title>634_getUserStakingEthAmountValue&#45;&gt;634_getTokenEthPrice</title>
<path fill="none" stroke="black" d="M4785,-87.7C4785,-79.98 4785,-70.71 4785,-62.11"/>
<polygon fill="black" stroke="black" points="4788.5,-62.1 4785,-52.1 4781.5,-62.1 4788.5,-62.1"/>
</g>
<!-- 634_getUserStakingEthAmountValue&#45;&gt;require(bool,string) -->
<g id="edge31" class="edge">
<title>634_getUserStakingEthAmountValue&#45;&gt;require(bool,string)</title>
<path fill="none" stroke="black" d="M4719.39,-90.62C4697.44,-86.4 4672.77,-82.31 4650,-80 4002.1,-14.27 3834.24,-102.89 3185,-52 3168.72,-50.72 3151.29,-48.71 3134.84,-46.52"/>
<polygon fill="black" stroke="black" points="3135.12,-43.02 3124.73,-45.13 3134.16,-49.96 3135.12,-43.02"/>
</g>
<!-- 634_owner -->
<g id="node52" class="node">
<title>634_owner</title>
<ellipse fill="none" stroke="black" cx="5252" cy="-34" rx="50.09" ry="18"/>
<text text-anchor="middle" x="5252" y="-30.3" font-family="Times,serif" font-size="14.00">634_owner</text>
</g>
<!-- 634_getUserStakingEthAmountValue&#45;&gt;634_owner -->
<g id="edge43" class="edge">
<title>634_getUserStakingEthAmountValue&#45;&gt;634_owner</title>
<path fill="none" stroke="black" d="M4868.53,-92.46C4896.9,-88.32 4928.81,-83.81 4958,-80 5064.49,-66.1 5092.98,-74.45 5198,-52 5201.03,-51.35 5204.12,-50.61 5207.23,-49.8"/>
<polygon fill="black" stroke="black" points="5208.42,-53.1 5217.11,-47.04 5206.54,-46.36 5208.42,-53.1"/>
</g>
<!-- 634_slitherConstructorConstantVariables -->
<g id="node39" class="node">
<title>634_slitherConstructorConstantVariables</title>
<ellipse fill="none" stroke="black" cx="4010" cy="-189" rx="137.58" ry="18"/>
<text text-anchor="middle" x="4010" y="-185.3" font-family="Times,serif" font-size="14.00">slitherConstructorConstantVariables</text>
</g>
<!-- 634_slitherConstructorConstantVariables&#45;&gt;keccak256(bytes) -->
<g id="edge35" class="edge">
<title>634_slitherConstructorConstantVariables&#45;&gt;keccak256(bytes)</title>
<path fill="none" stroke="black" d="M3938.52,-173.53C3914.61,-169.31 3887.75,-165.24 3863,-163 3844.24,-161.3 3200.83,-165.21 3185,-155 3154.09,-135.06 3179.37,-102.14 3150,-80 3086.75,-32.32 3051.91,-66.27 2974,-52 2967.9,-50.88 2961.56,-49.67 2955.22,-48.41"/>
<polygon fill="black" stroke="black" points="2955.79,-44.96 2945.3,-46.43 2954.42,-51.82 2955.79,-44.96"/>
</g>
<!-- 634_slitherConstructorVariables -->
<g id="node40" class="node">
<title>634_slitherConstructorVariables</title>
<ellipse fill="none" stroke="black" cx="4514" cy="-189" rx="106.68" ry="18"/>
<text text-anchor="middle" x="4514" y="-185.3" font-family="Times,serif" font-size="14.00">slitherConstructorVariables</text>
</g>
<!-- 634_issueAllTokens -->
<g id="node41" class="node">
<title>634_issueAllTokens</title>
<ellipse fill="none" stroke="black" cx="4324" cy="-189" rx="64.99" ry="18"/>
<text text-anchor="middle" x="4324" y="-185.3" font-family="Times,serif" font-size="14.00">issueAllTokens</text>
</g>
<!-- 634_issueAllTokens&#45;&gt;634__unstake -->
<g id="edge20" class="edge">
<title>634_issueAllTokens&#45;&gt;634__unstake</title>
<path fill="none" stroke="black" d="M4324,-170.82C4324,-160.19 4324,-146.31 4324,-134.2"/>
<polygon fill="black" stroke="black" points="4327.5,-134.15 4324,-124.15 4320.5,-134.15 4327.5,-134.15"/>
</g>
<!-- 634_issueAllTokens&#45;&gt;634_onlyOwner -->
<g id="edge26" class="edge">
<title>634_issueAllTokens&#45;&gt;634_onlyOwner</title>
<path fill="none" stroke="black" d="M4354.65,-172.95C4381.31,-159.87 4420.11,-140.82 4449.17,-126.55"/>
<polygon fill="black" stroke="black" points="4450.8,-129.65 4458.24,-122.1 4447.72,-123.37 4450.8,-129.65"/>
</g>
<!-- 634_setPriceFeedContract -->
<g id="node42" class="node">
<title>634_setPriceFeedContract</title>
<ellipse fill="none" stroke="black" cx="4919" cy="-189" rx="85.59" ry="18"/>
<text text-anchor="middle" x="4919" y="-185.3" font-family="Times,serif" font-size="14.00">setPriceFeedContract</text>
</g>
<!-- 634_setPriceFeedContract&#45;&gt;634_onlyOwner -->
<g id="edge25" class="edge">
<title>634_setPriceFeedContract&#45;&gt;634_onlyOwner</title>
<path fill="none" stroke="black" d="M4873.05,-173.67C4857.61,-169.46 4840.2,-165.35 4824,-163 4767.23,-154.76 4620.9,-171.63 4566,-155 4548.4,-149.67 4530.83,-139.21 4516.93,-129.42"/>
<polygon fill="black" stroke="black" points="4518.92,-126.54 4508.79,-123.46 4514.79,-132.19 4518.92,-126.54"/>
</g>
<!-- 634_unstake -->
<g id="node43" class="node">
<title>634_unstake</title>
<ellipse fill="none" stroke="black" cx="4203" cy="-189" rx="37.89" ry="18"/>
<text text-anchor="middle" x="4203" y="-185.3" font-family="Times,serif" font-size="14.00">unstake</text>
</g>
<!-- 634_unstake&#45;&gt;634__unstake -->
<g id="edge24" class="edge">
<title>634_unstake&#45;&gt;634__unstake</title>
<path fill="none" stroke="black" d="M4226.56,-174.56C4233.95,-170.59 4242.21,-166.4 4250,-163 4259.92,-158.67 4263.74,-160.61 4273,-155 4283.94,-148.37 4294.5,-139.09 4303.14,-130.45"/>
<polygon fill="black" stroke="black" points="4305.8,-132.74 4310.21,-123.1 4300.75,-127.88 4305.8,-132.74"/>
</g>
<!-- 634_removeStakeByIndex -->
<g id="node45" class="node">
<title>634_removeStakeByIndex</title>
<ellipse fill="none" stroke="black" cx="4177" cy="-106" rx="87.18" ry="18"/>
<text text-anchor="middle" x="4177" y="-102.3" font-family="Times,serif" font-size="14.00">removeStakeByIndex</text>
</g>
<!-- 634_unstake&#45;&gt;634_removeStakeByIndex -->
<g id="edge18" class="edge">
<title>634_unstake&#45;&gt;634_removeStakeByIndex</title>
<path fill="none" stroke="black" d="M4197.49,-170.82C4194.04,-160.08 4189.53,-146.03 4185.61,-133.84"/>
<polygon fill="black" stroke="black" points="4188.89,-132.61 4182.51,-124.15 4182.23,-134.74 4188.89,-132.61"/>
</g>
<!-- 634_constructor -->
<g id="node44" class="node">
<title>634_constructor</title>
<ellipse fill="none" stroke="black" cx="3804" cy="-189" rx="50.09" ry="18"/>
<text text-anchor="middle" x="3804" y="-185.3" font-family="Times,serif" font-size="14.00">constructor</text>
</g>
</g>
</svg>
